<?xml version="1.0" encoding="UTF-8"?>
<svg width="23px" height="18px" viewBox="0 0 23 18" version="1.1" xmlns="http://www.w3.org/2000/svg" xmlns:xlink="http://www.w3.org/1999/xlink">
    <!-- Generator: Sketch 47.1 (45422) - http://www.bohemiancoding.com/sketch -->
    <title>icon_mail</title>
    <desc>Created with Sketch.</desc>
    <defs></defs>
    <g id="Website" stroke="none" stroke-width="1" fill="none" fill-rule="evenodd">
        <g id="desktop_xlarge_1440x_12col" transform="translate(-292.000000, -2120.000000)" fill="#00BFA5">
            <g id="3-team" transform="translate(0.000000, 1450.000000)">
                <g id="container" transform="translate(165.000000, 290.000000)">
                    <g id="cta" transform="translate(127.000000, 380.000000)">
                        <path d="M20.25,0 L2.25,0 C1.0125,0 0,1.0125 0,2.25 L0,15.75 C0,16.9875 1.0125,18 2.25,18 L20.25,18 C21.4875,18 22.5,16.9875 22.5,15.75 L22.5,2.25 C22.5,1.0125 21.4875,0 20.25,0 L20.25,0 Z M20.25,4.5 L11.25,10.125 L2.25,4.5 L2.25,2.25 L11.25,7.875 L20.25,2.25 L20.25,4.5 L20.25,4.5 Z" id="icon_mail"></path>
                    </g>
                </g>
            </g>
        </g>
    </g>
</svg>