<?xml version="1.0" encoding="UTF-8"?>
<svg width="136px" height="40px" viewBox="0 0 136 40" version="1.1" xmlns="http://www.w3.org/2000/svg" xmlns:xlink="http://www.w3.org/1999/xlink">
    <!-- Generator: Sketch 49.3 (51167) - http://www.bohemiancoding.com/sketch -->
    <title>wg-logo_quer_temp</title>
    <desc>Created with Sketch.</desc>
    <defs></defs>
    <g id="Website" stroke="none" stroke-width="1" fill="none" fill-rule="evenodd">
        <g id="desktop_xlarge_1440x_12col-über_uns" transform="translate(-165.000000, -19.000000)">
            <g id="1-header">
                <g id="burger_menü">
                    <g id="menü_hover-active">
                        <g id="wg-logo_quer_temp" transform="translate(165.000000, 19.000000)">
                            <g>
                                <g id="wg-logo_bildmarke">
                                    <path d="M12.6106604,13.9679023 C10.5332159,12.7636996 9.13185243,10.5172349 9.13185243,7.94812749 C9.13185243,4.11340366 12.2515588,0.993697345 16.0862826,0.993697345 C19.9210064,0.993697345 23.0407127,4.11340366 23.0407127,7.94812749 C23.0407127,10.5172349 21.6393492,12.7636996 19.5617278,13.9679023 L20.0599393,14.8305249 C22.4350717,13.4560631 24.0343039,10.8897874 24.0343039,7.94812749 C24.0343039,3.55855716 20.4758529,-7.07938122e-05 16.0862826,-7.07938122e-05 C11.6965353,-7.07938122e-05 8.13808429,3.55855716 8.13808429,7.94812749 C8.13808429,10.8897874 9.73731651,13.4560631 12.1126259,14.8305249 L12.6106604,13.9679023 Z" id="Path" fill="#424242"></path>
                                    <path d="M18.072226,11.3879988 C19.2592612,10.699883 20.0601162,9.41621417 20.0601162,7.94812749 C20.0601162,5.75688201 18.277528,3.97411684 16.0862826,3.97411684 C13.8950371,3.97411684 12.1122719,5.75688201 12.1122719,7.94812749 C12.1122719,9.41621417 12.9131269,10.699883 14.1001622,11.3879988 L13.6026587,12.2497365 C12.1181124,11.3906536 11.1186808,9.78664279 11.1186808,7.94812749 C11.1186808,5.20451329 13.3426684,2.98052568 16.0862826,2.98052568 C18.8297198,2.98052568 21.0538844,5.20451329 21.0538844,7.94812749 C21.0538844,9.78664279 20.0542757,11.3906536 18.5697295,12.2497365 L18.072226,11.3879988 Z" id="Path" fill="#424242"></path>
                                    <polygon id="Path" fill="#00BFA5" points="9.20246926 23.845055 12.6444644 29.806071 16.0861056 23.845055 19.5282777 29.806071 22.9699189 23.845055 16.0861056 11.9224921"></polygon>
                                    <polygon id="Path" fill="#00BFA5" points="0.0240515091 39.7419825 8.05525553 25.8325913 12.6444644 33.7809665 16.0861056 27.8192426 19.5282777 33.7809665 24.1173096 25.8325913 32.1483367 39.7419825"></polygon>
                                </g>
                                <path d="M135.038646,27.7478837 L135.038646,29.7313213 L128.158447,29.7313213 L128.158447,15.2684947 L130.245307,15.2684947 L130.245307,27.7478837 L135.038646,27.7478837 Z M120.658263,15.2684947 L122.910379,15.2684947 L126.546743,29.7313213 L124.356643,29.7313213 L123.69562,26.8179978 L119.873206,26.8179978 L119.211999,29.7313213 L117.021899,29.7313213 L120.658263,15.2684947 Z M120.327751,24.8759661 L123.240891,24.8759661 L122.352595,20.9917188 C122.125322,20.0412219 121.91866,18.6569746 121.815421,17.8925285 L121.75322,17.8925285 C121.649982,18.6569746 121.44332,20.0412219 121.216231,20.9917188 L120.327751,24.8759661 Z M111.690835,30 C108.922157,30 107.269047,28.1610232 107.269047,25.1446448 L107.269047,19.8553552 C107.269047,16.8387928 108.922157,15 111.690835,15 C114.459514,15 116.11244,16.8387928 116.11244,19.8553552 L116.11244,25.1446448 C116.11244,28.1610232 114.459514,30 111.690835,30 Z M109.417924,25.1446448 C109.417924,26.9626426 110.18237,27.9545455 111.690835,27.9545455 C113.199117,27.9545455 113.963563,26.9626426 113.963563,25.1446448 L113.963563,19.8553552 C113.963563,18.0369893 113.199117,17.0452705 111.690835,17.0452705 C110.18237,17.0452705 109.417924,18.0369893 109.417924,19.8553552 L109.417924,25.1446448 Z M96.8145013,25.4339345 L96.8145013,19.5454545 C96.8145013,16.6115201 98.4262054,15.0412219 101.050055,15.0412219 C103.612072,15.0412219 105.161759,16.5909091 105.265182,19.4420317 L103.198933,19.4420317 C103.116305,17.7684947 102.37247,17.0452705 101.050055,17.0452705 C99.7278248,17.0452705 98.9425837,17.8099006 98.9425837,19.5660655 L98.9425837,25.4339345 C98.9425837,27.1900994 99.7692308,27.9545455 101.112072,27.9545455 C102.496503,27.9545455 103.322967,27.1900994 103.322967,25.5371734 L103.322967,23.7189915 L101.029444,23.7189915 L101.029444,21.8594038 L105.368421,21.8594038 L105.368421,25.5371734 C105.327199,28.3676849 103.694884,29.9587781 101.091461,29.9587781 C98.4882223,29.9587781 96.8145013,28.3676849 96.8145013,25.4339345 Z M86.7110784,25.7644461 L88.8393449,25.7644461 C88.8599558,27.2521163 89.6658079,27.9751564 90.9468163,27.9751564 C92.3312477,27.9751564 93.0130659,27.1486934 93.0130659,25.9917188 C93.0130659,23.1198013 86.9591461,22.9545455 86.9591461,18.6569746 C86.9591461,16.5701141 88.4880383,15 90.9262054,15 C93.4054104,15 94.8930806,16.5909091 94.9550975,19.0495031 L92.8270151,19.0495031 C92.7856091,17.6650718 92.062569,17.0040486 90.9468163,17.0040486 C89.7692308,17.0040486 89.0874126,17.6650718 89.0874126,18.6981965 C89.0874126,21.5288922 95.1615753,21.5288922 95.1615753,26.0123298 C95.1615753,28.1610232 93.6534781,30 90.9468163,30 C88.3847994,30 86.7318734,28.4090909 86.7110784,25.7644461 Z M85.8435775,17.2519323 L82.8373206,17.2519323 L82.8373206,29.7313213 L80.7092381,29.7313213 L80.7092381,17.2519323 L77.7029812,17.2519323 L77.7029812,15.2684947 L85.8435775,15.2684947 L85.8435775,17.2519323 Z M72.3100847,15.2684947 L74.562201,15.2684947 L78.1985646,29.7313213 L76.0084652,29.7313213 L75.347442,26.8179978 L71.5250276,26.8179978 L70.8638204,29.7313213 L68.673721,29.7313213 L72.3100847,15.2684947 Z M71.9795731,24.8759661 L74.8927126,24.8759661 L74.0044166,20.9917188 C73.7771439,20.0412219 73.5704821,18.6569746 73.4672433,17.8925285 L73.4050423,17.8925285 C73.3018035,18.6569746 73.0951417,20.0412219 72.867869,20.9917188 L71.9795731,24.8759661 Z M67.0828119,15.2684947 L67.0828119,29.7313213 L64.9959514,29.7313213 L64.9959514,23.3884799 L60.9050423,23.3884799 L60.9050423,29.7313213 L58.8181818,29.7313213 L58.8181818,15.2684947 L60.9050423,15.2684947 L60.9050423,21.4254693 L64.9959514,21.4254693 L64.9959514,15.2684947 L67.0828119,15.2684947 Z M50.7189915,15.4957674 L52.1654398,23.0783953 C52.3927126,24.3387928 52.7026132,26.1155686 52.826647,27.0246596 L52.9092749,27.0246596 C53.0331248,26.1155686 53.3844314,24.2355539 53.5704821,23.1818182 L55.0579683,15.2684947 L57.2274568,15.2684947 L53.9836216,29.7313213 L51.7521163,29.7313213 L50.347074,23.347074 C50.0371734,21.9834376 49.757269,19.8759661 49.6538462,18.6981965 L49.5734266,18.6981965 C49.4701877,19.8759661 49.1900994,21.9834376 48.8801987,23.347074 L47.4751564,29.7313213 L45.2438351,29.7313213 L42,15.2684947 L44.1693044,15.2684947 L45.6569746,23.1818182 C45.8428414,24.2355539 46.194148,26.1155686 46.3179978,27.0246596 L46.4008097,27.0246596 C46.5246596,26.1155686 46.8347442,24.3387928 47.0618329,23.0783953 L48.5082812,15.4957674 L50.7189915,15.4957674 Z" id="wg-logo_wortmarke" fill="#424242"></path>
                            </g>
                        </g>
                    </g>
                </g>
            </g>
        </g>
    </g>
</svg>