<?xml version="1.0" encoding="UTF-8" standalone="no"?>
<svg width="125px" height="40px" viewBox="0 0 125 40" version="1.1" xmlns="http://www.w3.org/2000/svg" xmlns:xlink="http://www.w3.org/1999/xlink">
    <!-- Generator: Sketch 50 (54983) - http://www.bohemiancoding.com/sketch -->
    <title>wg_logo_quer_sub</title>
    <desc>Created with Sketch.</desc>
    <defs></defs>
    <g id="Website" stroke="none" stroke-width="1" fill="none" fill-rule="evenodd">
        <g id="desktop_xlarge_1440x_12col-digital_sport_award" transform="translate(-165.000000, -19.000000)">
            <g id="1-header">
                <g id="menü_hover-active">
                    <g id="wg_logo_quer_sub" transform="translate(165.000000, 19.000000)">
                        <g>
                            <path d="M99.967993,37.3240705 C100.431197,37.3240705 100.696514,37.0639824 100.696514,36.5497974 L100.696514,35.0181674 C100.696514,34.5094449 100.436831,34.249533 99.967993,34.249533 L99.4880634,34.249533 L99.4880634,37.3240705 L99.967993,37.3240705 Z M99.0252113,33.808652 L99.9625352,33.808652 C100.719225,33.808652 101.159718,34.249533 101.159718,35.0068899 L101.159718,36.5667137 C101.159718,37.3240705 100.713415,37.7649515 99.967993,37.7649515 L99.0252113,37.7649515 L99.0252113,33.808652 Z M96.3421127,35.8375507 L96.8391197,35.8375507 C97.296338,35.8375507 97.533662,35.5494449 97.533662,35.0238062 C97.533662,34.5094449 97.296338,34.2438943 96.8447535,34.2438943 L96.3421127,34.2438943 L96.3421127,35.8375507 Z M96.743169,36.272793 L96.3421127,36.272793 L96.3421127,37.7649515 L95.8790845,37.7649515 L95.8790845,33.808652 L96.8447535,33.808652 C97.59,33.808652 98.0023239,34.249533 98.0023239,35.0068899 C98.0023239,35.6567577 97.7142958,36.0863612 97.2174648,36.2275066 L98.1320775,37.7649515 L97.6070775,37.7649515 L96.743169,36.272793 Z M94.2634155,36.4763172 L93.9415845,35.1369339 C93.8794366,34.8826608 93.8230986,34.5490925 93.8003873,34.3964934 L93.7834859,34.3964934 C93.7607746,34.5490925 93.7044366,34.8826608 93.6422887,35.1369339 L93.3204577,36.4763172 L94.2634155,36.4763172 Z M94.3651761,36.9059207 L93.2186972,36.9059207 L93.0098944,37.7649515 L92.524331,37.7649515 L93.5405282,33.808652 L94.0433451,33.808652 L95.0595423,37.7649515 L94.5739789,37.7649515 L94.3651761,36.9059207 Z M92.2125352,33.808652 L91.3315493,37.7649515 L90.8290845,37.7649515 L90.3998592,35.8208106 C90.3208099,35.4759648 90.2363028,34.8826608 90.2077817,34.56037 L90.1854225,34.56037 C90.1570775,34.8826608 90.0723944,35.4759648 89.9933451,35.8208106 L89.5641197,37.7649515 L89.0616549,37.7649515 L88.1808451,33.808652 L88.6664085,33.808652 L89.1125352,36.1089163 C89.1688732,36.3971982 89.2704577,36.9284758 89.2988028,37.1374626 L89.321338,37.1374626 C89.3553169,36.9284758 89.4456338,36.4368458 89.5134155,36.0638062 L89.9482746,33.8708546 L90.4451056,33.8708546 L90.8799648,36.0638062 C90.9477465,36.4368458 91.0380634,36.9284758 91.0720423,37.1374626 L91.0945775,37.1374626 C91.1227465,36.9284758 91.224331,36.3971982 91.2808451,36.1089163 L91.7326056,33.808652 L92.2125352,33.808652 Z M87.0732746,36.4763172 L86.7514437,35.1369339 C86.6892958,34.8826608 86.6329577,34.5490925 86.6102465,34.3964934 L86.5933451,34.3964934 C86.5706338,34.5490925 86.5142958,34.8826608 86.4521479,35.1369339 L86.1303169,36.4763172 L87.0732746,36.4763172 Z M87.1750352,36.9059207 L86.0285563,36.9059207 L85.8197535,37.7649515 L85.3341901,37.7649515 L86.3503873,33.808652 L86.8532042,33.808652 L87.8694014,37.7649515 L87.383838,37.7649515 L87.1750352,36.9059207 Z M82.6337852,37.7649339 C82.5436444,37.6236123 82.4475176,37.4881057 82.3515669,37.3522467 C82.1087852,37.6350661 81.792588,37.8384141 81.3971655,37.8384141 C80.8834331,37.8384141 80.4542077,37.4937445 80.4542077,36.8662555 C80.4542077,36.3237004 80.7818486,35.9506608 81.1262148,35.6285463 C80.8721655,35.2214978 80.7027993,34.8599119 80.7027993,34.5547137 C80.7027993,34.1252863 80.97375,33.7351542 81.5270951,33.7351542 C82.114419,33.7351542 82.3572007,34.1647577 82.3459331,34.5943612 C82.3346655,35.0577974 82.0182923,35.3911894 81.6853697,35.7020264 C81.8714613,35.9733921 82.0917077,36.2727753 82.3233979,36.5948899 C82.3968134,36.4368282 82.4531514,36.2842291 82.4927641,36.1598238 L82.9614261,36.1598238 C82.8822007,36.4140969 82.7695246,36.7136564 82.6056162,36.9904846 C82.7806162,37.2394714 82.9614261,37.499207 83.1364261,37.7649339 L82.6337852,37.7649339 Z M81.4480458,35.3346256 C81.7079049,35.0972687 81.9167077,34.8655507 81.9167077,34.5887225 C81.9167077,34.3568282 81.7755106,34.1478414 81.5270951,34.1478414 C81.2843134,34.1478414 81.1374824,34.3229956 81.1374824,34.5659912 C81.1374824,34.7582379 81.2559683,35.0181498 81.4480458,35.3346256 Z M82.0860739,36.985022 C81.8320246,36.6345374 81.589243,36.3067841 81.3746303,35.9959471 C81.120581,36.2445815 80.9230458,36.5046696 80.9230458,36.8267841 C80.9230458,37.1770925 81.1432923,37.4088106 81.4311444,37.4088106 C81.6853697,37.4088106 81.9110739,37.2280176 82.0860739,36.985022 Z M77.9798768,34.2438062 L77.1328697,34.2438062 L77.1328697,37.7648634 L76.6642077,37.7648634 L76.6642077,34.2438062 L75.8172007,34.2438062 L75.8172007,33.8085639 L77.9798768,33.8085639 L77.9798768,34.2438062 Z M74.4841021,37.7648634 L74.4841021,33.8085639 L74.9473063,33.8085639 L74.9473063,37.7648634 L74.4841021,37.7648634 Z M73.2973063,33.8085639 L73.2973063,37.7648634 L72.840088,37.7648634 L72.840088,35.9507665 C72.8457218,35.521163 72.8569894,35.1368458 72.8795246,34.7525286 L72.8569894,34.7467137 C72.7497711,35.0464493 72.6029401,35.4138502 72.461743,35.7868899 L72.049419,36.8549075 L71.5922007,36.8549075 L71.174243,35.7868899 C71.0386796,35.4138502 70.8862148,35.0464493 70.7846303,34.7467137 L70.7564613,34.7525286 C70.7789965,35.1368458 70.7958979,35.521163 70.7958979,35.9507665 L70.7958979,37.7648634 L70.3385035,37.7648634 L70.3385035,33.8085639 L70.8240669,33.8085639 L71.5073415,35.4647753 C71.6032923,35.7019559 71.7444894,36.0919119 71.8068134,36.2956123 L71.8291725,36.2956123 C71.8969542,36.0919119 72.0381514,35.7019559 72.1342782,35.4647753 L72.8175528,33.8085639 L73.2973063,33.8085639 Z M69.1517077,33.8085639 L69.1517077,37.7648634 L68.6944894,37.7648634 L68.6944894,35.9507665 C68.6999472,35.521163 68.7112148,35.1368458 68.7339261,34.7525286 L68.7112148,34.7467137 C68.6039965,35.0464493 68.4571655,35.4138502 68.3159683,35.7868899 L67.9039965,36.8549075 L67.4464261,36.8549075 L67.0286444,35.7868899 C66.8929049,35.4138502 66.7406162,35.0464493 66.6390317,34.7467137 L66.6106866,34.7525286 C66.6333979,35.1368458 66.6501232,35.521163 66.6501232,35.9507665 L66.6501232,37.7648634 L66.1929049,37.7648634 L66.1929049,33.8085639 L66.6784683,33.8085639 L67.361743,35.4647753 C67.4576937,35.7019559 67.5988908,36.0919119 67.6610387,36.2956123 L67.68375,36.2956123 C67.7513556,36.0919119 67.8925528,35.7019559 67.9885035,35.4647753 L68.6717782,33.8085639 L69.1517077,33.8085639 Z M62.8267077,36.5668018 L62.8267077,33.8085639 L63.3010035,33.8085639 L63.3010035,36.5668018 C63.3010035,37.1149956 63.5608627,37.3692687 63.9502993,37.3692687 C64.3457218,37.3692687 64.6054049,37.1149956 64.6054049,36.5668018 L64.6054049,33.8085639 L65.0740669,33.8085639 L65.0740669,36.5668018 C65.0740669,37.3807225 64.6223063,37.8214273 63.9502993,37.8214273 C63.2784683,37.8214273 62.8267077,37.3807225 62.8267077,36.5668018 Z M59.6976585,36.7137621 L60.1663204,36.7137621 C60.177588,37.1602819 60.4316373,37.3918238 60.8214261,37.3918238 C61.2506514,37.3918238 61.4594542,37.1262731 61.4594542,36.7532335 C61.4594542,35.9054802 59.7598063,35.8829251 59.7598063,34.7185198 C59.7598063,34.1592247 60.177588,33.7350837 60.8157923,33.7350837 C61.465088,33.7350837 61.8603345,34.170326 61.8828697,34.8201938 L61.4142077,34.8201938 C61.3974824,34.3851278 61.1657923,34.1816035 60.8214261,34.1816035 C60.4487148,34.1816035 60.2284683,34.3964053 60.2284683,34.7243348 C60.2284683,35.5664493 61.93375,35.5493568 61.93375,36.7588722 C61.93375,37.3239824 61.5443134,37.8383436 60.8268838,37.8383436 C60.149419,37.8383436 59.7089261,37.4032775 59.6976585,36.7137621 Z" id="subline" fill="#9E9E9E"></path>
                            <path d="M124.929489,27.9518238 L124.929489,29.8510308 L118.347271,29.8510308 L118.347271,16.0023965 L120.34375,16.0023965 L120.34375,27.9518238 L124.929489,27.9518238 Z M111.171919,16.0023965 L113.326496,16.0023965 L116.80537,29.8510308 L114.710123,29.8510308 L114.077553,27.0614273 L110.420863,27.0614273 L109.788292,29.8510308 L107.693046,29.8510308 L111.171919,16.0023965 Z M110.855722,25.2020441 L113.64287,25.2020441 L112.792694,21.4825727 C112.57544,20.5724405 112.377729,19.246978 112.278961,18.5149956 L112.21963,18.5149956 C112.120687,19.246978 111.922975,20.5724405 111.705722,21.4825727 L110.855722,25.2020441 Z M102.59287,30.1082996 C99.9441021,30.1082996 98.3627641,28.3474185 98.3627641,25.4591366 L98.3627641,20.394467 C98.3627641,17.5060088 99.9441021,15.745304 102.59287,15.745304 C105.241637,15.745304 106.822975,17.5060088 106.822975,20.394467 L106.822975,25.4591366 C106.822975,28.3474185 105.241637,30.1082996 102.59287,30.1082996 Z M100.418398,25.4591366 C100.418398,27.1999295 101.149912,28.1497093 102.59287,28.1497093 C104.035827,28.1497093 104.767342,27.1999295 104.767342,25.4591366 L104.767342,20.394467 C104.767342,18.6533216 104.035827,17.7037181 102.59287,17.7037181 C101.149912,17.7037181 100.418398,18.6533216 100.418398,20.394467 L100.418398,25.4591366 Z M88.3608275,25.736141 L88.3608275,20.0977269 C88.3608275,17.2883877 89.9027289,15.7847753 92.4131162,15.7847753 C94.8641725,15.7847753 96.3465669,17.268652 96.4455106,19.998696 L94.46875,19.998696 C94.3897007,18.3962291 93.678081,17.7037181 92.4131162,17.7037181 C91.1479754,17.7037181 90.396743,18.4358767 90.396743,20.1174626 L90.396743,25.736141 C90.396743,27.4177269 91.187588,28.1497093 92.4724472,28.1497093 C93.796743,28.1497093 94.587412,27.4177269 94.587412,25.8349956 L94.587412,24.0940264 L92.3932218,24.0940264 L92.3932218,22.3134097 L96.5442782,22.3134097 L96.5442782,25.8349956 C96.5048415,28.545304 94.9432218,30.0688282 92.4525528,30.0688282 C89.9620599,30.0688282 88.3608275,28.545304 88.3608275,25.736141 Z M78.6951585,26.0526167 L80.7310739,26.0526167 C80.7507923,27.4771101 81.521743,28.1694449 82.7472711,28.1694449 C84.071743,28.1694449 84.7240317,27.3780793 84.7240317,26.2702379 C84.7240317,23.5202819 78.9323063,23.3620441 78.9323063,19.246978 C78.9323063,17.2487401 80.3949824,15.745304 82.7275528,15.745304 C85.0995599,15.745304 86.5227993,17.268652 86.5821303,19.622837 L84.5460387,19.622837 C84.5064261,18.2971982 83.8147007,17.6642467 82.7472711,17.6642467 C81.6206866,17.6642467 80.9683979,18.2971982 80.9683979,19.2864493 C80.9683979,21.9969339 86.7796655,21.9969339 86.7796655,26.2899736 C86.7796655,28.3474185 85.3367077,30.1082996 82.7472711,30.1082996 C80.2960387,30.1082996 78.7148768,28.5849515 78.6951585,26.0526167 Z M77.8650528,17.9016035 L74.9889965,17.9016035 L74.9889965,29.8510308 L72.953081,29.8510308 L72.953081,17.9016035 L70.0770246,17.9016035 L70.0770246,16.0023965 L77.8650528,16.0023965 L77.8650528,17.9016035 Z M64.9176937,16.0023965 L67.0722711,16.0023965 L70.5511444,29.8510308 L68.4558979,29.8510308 L67.8235035,27.0614273 L64.1664613,27.0614273 L63.5338908,29.8510308 L61.4388204,29.8510308 L64.9176937,16.0023965 Z M64.6014965,25.2020441 L67.3884683,25.2020441 L66.5386444,21.4825727 C66.3210387,20.5724405 66.1233275,19.246978 66.0247359,18.5149956 L65.9652289,18.5149956 C65.8664613,19.246978 65.66875,20.5724405 65.4513204,21.4825727 L64.6014965,25.2020441 Z M59.9168134,16.0023965 L59.9168134,29.8510308 L57.9203345,29.8510308 L57.9203345,23.7775507 L54.0064261,23.7775507 L54.0064261,29.8510308 L52.0101232,29.8510308 L52.0101232,16.0023965 L54.0064261,16.0023965 L54.0064261,21.8980793 L57.9203345,21.8980793 L57.9203345,16.0023965 L59.9168134,16.0023965 Z M44.2618838,16.2200176 L45.6455106,23.4806344 C45.8627641,24.6875066 46.159419,26.3888282 46.278081,27.2593128 L46.3571303,27.2593128 C46.4756162,26.3888282 46.8117077,24.588652 46.9897007,23.5796652 L48.4127641,16.0023965 L50.4882923,16.0023965 L47.3849472,29.8510308 L45.250088,29.8510308 L43.9058979,23.7379031 C43.6095951,22.4321762 43.3416373,20.4142026 43.2428697,19.2864493 L43.165757,19.2864493 C43.0669894,20.4142026 42.7990317,22.4321762 42.5023768,23.7379031 L41.1583627,29.8510308 L39.0236796,29.8510308 L35.9203345,16.0023965 L37.9956866,16.0023965 L39.4189261,23.5796652 C39.596919,24.588652 39.9328345,26.3888282 40.0514965,27.2593128 L40.1305458,27.2593128 C40.2492077,26.3888282 40.5455106,24.6875066 40.7631162,23.4806344 L42.146743,16.2200176 L44.2617077,16.2200176 L44.2618838,16.2200176 Z" id="wg_logo" fill="#424242"></path>
                            <g id="wg_symbol" transform="translate(0.000000, 0.054449)">
                                <path d="M9.1303169,23.8626608 L15.9780282,11.992 L22.8255634,23.8626608 L19.4019718,29.7976388 L15.9780282,23.8626608 L12.5540845,29.7976388 L9.1303169,23.8626608 Z M3.5211268e-05,39.6899736 L7.98911972,25.8413392 L12.5540845,33.7551718 L15.9780282,27.819489 L19.4019718,33.7551718 L23.9667606,25.8413392 L31.9558451,39.6899736 L3.5211268e-05,39.6899736 Z" fill="#00BFA5"></path>
                                <path d="M12.0251056,14.8874009 C9.66242958,13.5189427 8.07158451,10.9637004 8.07158451,8.03506608 C8.07158451,3.6646696 11.6111972,0.121762115 15.9779225,0.121762115 C20.3446479,0.121762115 23.8842606,3.6646696 23.8842606,8.03506608 C23.8842606,10.9637004 22.2934155,13.5189427 19.9307394,14.8874009 L19.4353169,14.0285463 C21.5018662,12.8296035 22.8958803,10.5929515 22.8958803,8.03506608 C22.8958803,4.21709251 19.7925352,1.11101322 15.9779225,1.11101322 C12.1633099,1.11101322 9.05996479,4.21709251 9.05996479,8.03506608 C9.05996479,10.5929515 10.4539789,12.8296035 12.5205282,14.0285463 L12.0251056,14.8874009 Z M18.4483451,12.3177093 L17.9536268,11.4599119 C19.1344366,10.7748018 19.9309155,9.49674009 19.9309155,8.03506608 C19.9309155,5.85339207 18.1576761,4.07859031 15.9779225,4.07859031 C13.798169,4.07859031 12.0249296,5.85339207 12.0249296,8.03506608 C12.0249296,9.49674009 12.8214085,10.7748018 14.0022183,11.4599119 L13.5075,12.3177093 C12.0307394,11.4625551 11.0363732,9.86555066 11.0363732,8.03506608 C11.0363732,5.30343612 13.2486972,3.089163 15.9779225,3.089163 C18.7071479,3.089163 20.9196479,5.30343612 20.9196479,8.03506608 C20.9196479,9.86555066 19.9251056,11.4625551 18.4483451,12.3177093 Z" fill="#424242"></path>
                            </g>
                        </g>
                    </g>
                </g>
            </g>
        </g>
    </g>
</svg>